<svg xmlns="http://www.w3.org/2000/svg" xmlns:xlink="http://www.w3.org/1999/xlink" width="1080" zoomAndPan="magnify" viewBox="0 0 810 809.999993" height="1080" preserveAspectRatio="xMidYMid meet" version="1.0"><defs><clipPath id="087758c78f"><path d="M 405 0 C 181.324219 0 0 181.324219 0 405 C 0 628.675781 181.324219 810 405 810 C 628.675781 810 810 628.675781 810 405 C 810 181.324219 628.675781 0 405 0 Z M 405 0 " clip-rule="nonzero"/></clipPath><clipPath id="73dfbad352"><path d="M 0 0 L 810 0 L 810 810 L 0 810 Z M 0 0 " clip-rule="nonzero"/></clipPath><clipPath id="070e4541ce"><path d="M 405 0 C 181.324219 0 0 181.324219 0 405 C 0 628.675781 181.324219 810 405 810 C 628.675781 810 810 628.675781 810 405 C 810 181.324219 628.675781 0 405 0 Z M 405 0 " clip-rule="nonzero"/></clipPath><clipPath id="7f568ca552"><rect x="0" width="810" y="0" height="810"/></clipPath><clipPath id="0f25cdcc45"><path d="M 91 180 L 719 180 L 719 631.511719 L 91 631.511719 Z M 91 180 " clip-rule="nonzero"/></clipPath><clipPath id="55731ef7b6"><path d="M 443 195 L 560 195 L 560 631.511719 L 443 631.511719 Z M 443 195 " clip-rule="nonzero"/></clipPath></defs><g clip-path="url(#087758c78f)"><g transform="matrix(1, 0, 0, 1, 0, 0.000000000000039746)"><g clip-path="url(#7f568ca552)"><g clip-path="url(#73dfbad352)"><g clip-path="url(#070e4541ce)"><rect x="-178.2" width="1166.4" fill="#000000" height="1166.39999" y="-178.199998" fill-opacity="1"/></g></g></g></g></g><g clip-path="url(#0f25cdcc45)"><path fill="#fefefe" d="M 496.449219 180.742188 L 508.226562 180.742188 L 525.890625 185.160156 L 543.558594 193.992188 L 546.503906 198.410156 L 546.503906 201.355469 L 577.417969 210.1875 L 589.195312 214.601562 L 593.613281 217.546875 L 593.613281 220.492188 L 596.554688 220.492188 L 602.445312 233.742188 L 600.972656 236.683594 L 577.417969 239.628906 L 543.558594 241.101562 L 536.199219 254.351562 L 528.835938 285.265625 L 528.835938 289.683594 L 536.199219 276.433594 L 540.613281 282.324219 L 545.03125 295.570312 L 546.503906 302.933594 L 546.503906 332.375 L 539.140625 355.929688 L 527.363281 376.539062 L 512.644531 395.679688 L 506.753906 403.039062 L 493.503906 447.203125 L 493.503906 464.871094 L 496.449219 473.703125 L 521.476562 479.589844 L 533.253906 479.589844 L 617.167969 461.925781 L 633.359375 472.230469 L 667.21875 495.785156 L 690.773438 511.980469 L 715.800781 529.644531 L 717.273438 531.117188 L 718.746094 559.085938 L 718.746094 631.222656 L 708.441406 622.390625 L 695.191406 606.195312 L 677.523438 587.058594 L 664.273438 570.863281 L 646.609375 551.726562 L 633.359375 535.535156 L 621.582031 522.285156 L 621.582031 519.339844 L 615.695312 516.394531 L 609.804688 510.507812 L 509.699219 525.226562 L 494.976562 517.867188 L 440.507812 500.203125 L 433.148438 511.980469 L 418.425781 537.003906 L 394.871094 548.78125 L 371.316406 563.503906 L 363.957031 569.394531 L 361.011719 569.394531 L 358.066406 550.253906 L 346.289062 519.339844 L 335.984375 498.730469 L 338.929688 491.367188 L 347.761719 475.175781 L 334.511719 470.757812 L 271.210938 454.566406 L 235.878906 460.453125 L 218.210938 460.453125 L 190.242188 456.035156 L 168.160156 448.675781 L 146.078125 436.898438 L 138.714844 431.011719 L 91.605469 417.761719 L 91.605469 414.816406 L 129.882812 405.984375 L 137.242188 408.929688 L 150.492188 417.761719 L 172.574219 429.539062 L 196.128906 436.898438 L 213.796875 439.84375 L 234.40625 439.84375 L 256.488281 435.425781 L 268.265625 429.539062 L 253.542969 425.121094 L 252.070312 422.175781 L 262.375 417.761719 L 271.210938 422.175781 L 293.292969 426.59375 L 294.765625 425.121094 L 280.042969 413.34375 L 262.375 394.207031 L 250.597656 379.484375 L 249.128906 375.066406 L 235.878906 372.125 L 204.960938 361.820312 L 210.851562 360.347656 L 240.292969 364.761719 L 263.847656 367.707031 L 296.234375 400.09375 L 316.847656 414.816406 L 343.34375 429.539062 L 361.011719 435.425781 L 362.484375 420.703125 L 369.84375 383.902344 L 377.203125 330.902344 L 380.148438 304.40625 L 384.566406 294.097656 L 402.230469 273.488281 L 441.980469 233.742188 L 447.867188 227.851562 L 459.644531 204.296875 L 472.894531 189.578125 L 487.617188 182.214844 Z M 493.503906 186.632812 L 481.726562 191.046875 L 471.421875 202.824219 L 468.476562 211.660156 L 468.476562 223.4375 L 472.894531 232.269531 L 483.199219 241.101562 L 490.5625 244.046875 L 509.699219 244.046875 L 525.890625 238.15625 L 539.140625 229.324219 L 587.722656 229.324219 L 586.25 223.4375 L 580.363281 216.074219 L 553.863281 207.242188 L 537.667969 201.355469 L 531.78125 195.464844 L 524.421875 191.046875 L 506.753906 186.632812 Z M 468.476562 447.203125 L 458.171875 464.871094 L 458.171875 467.8125 L 478.785156 470.757812 L 477.3125 460.453125 L 472.894531 451.621094 Z M 468.476562 447.203125 " fill-opacity="1" fill-rule="nonzero"/></g><g clip-path="url(#55731ef7b6)"><path fill="#fefefe" d="M 443.453125 656.25 L 462.589844 656.25 L 462.589844 728.386719 L 443.453125 728.386719 Z M 503.808594 195.464844 L 515.585938 195.464844 L 522.949219 202.824219 L 521.476562 216.074219 L 527.363281 219.019531 L 514.117188 219.019531 L 505.28125 223.4375 L 496.449219 221.964844 L 490.5625 214.601562 L 490.5625 213.132812 L 499.394531 213.132812 L 497.921875 205.769531 L 500.867188 198.410156 Z M 527.363281 219.019531 L 534.726562 220.492188 L 556.808594 221.964844 L 556.808594 223.4375 L 533.253906 223.4375 L 527.363281 220.492188 Z M 543.558594 210.1875 L 552.390625 213.132812 L 555.335938 216.074219 L 545.03125 216.074219 L 542.085938 211.660156 Z M 555.335938 216.074219 L 559.753906 217.546875 L 553.863281 219.019531 Z M 546.503906 219.019531 L 552.390625 220.492188 Z M 546.503906 219.019531 " fill-opacity="1" fill-rule="nonzero"/></g></svg>