<svg xmlns="http://www.w3.org/2000/svg" xmlns:xlink="http://www.w3.org/1999/xlink" width="1000" zoomAndPan="magnify" viewBox="0 0 750 525.000007" height="700" preserveAspectRatio="xMidYMid meet" version="1.0"><defs><clipPath id="38a51ea2bd"><path d="M 419 19 L 555 19 L 555 524 L 419 524 Z M 419 19 " clip-rule="nonzero"/></clipPath></defs><path fill="#fefefe" d="M 480.789062 2.582031 L 494.414062 2.582031 L 514.851562 7.691406 L 535.285156 17.910156 L 538.691406 23.019531 L 538.691406 26.425781 L 574.453125 36.640625 L 588.078125 41.75 L 593.1875 45.15625 L 593.1875 48.5625 L 596.59375 48.5625 L 603.40625 63.890625 L 601.703125 67.296875 L 574.453125 70.703125 L 535.285156 72.40625 L 526.769531 87.730469 L 518.253906 123.496094 L 518.253906 128.605469 L 526.769531 113.277344 L 531.878906 120.089844 L 536.988281 135.414062 L 538.691406 143.929688 L 538.691406 177.992188 L 530.175781 205.238281 L 516.550781 229.078125 L 499.523438 251.21875 L 492.710938 259.734375 L 477.382812 310.824219 L 477.382812 331.257812 L 480.789062 341.476562 L 509.742188 348.289062 L 523.363281 348.289062 L 620.433594 327.851562 L 639.167969 339.773438 L 678.335938 367.023438 L 705.585938 385.753906 L 734.535156 406.191406 L 736.238281 407.894531 L 737.941406 440.25 L 737.941406 523.699219 L 726.019531 513.480469 L 710.695312 494.746094 L 690.257812 472.609375 L 674.929688 453.875 L 654.496094 431.734375 L 639.167969 413.003906 L 625.542969 397.675781 L 625.542969 394.269531 L 618.730469 390.863281 L 611.921875 384.050781 L 496.117188 401.082031 L 479.085938 392.566406 L 416.078125 372.132812 L 407.5625 385.753906 L 390.53125 414.707031 L 363.285156 428.328125 L 336.035156 445.359375 L 327.519531 452.171875 L 324.113281 452.171875 L 320.707031 430.03125 L 307.085938 394.269531 L 295.164062 370.429688 L 298.570312 361.914062 L 308.789062 343.179688 L 293.460938 338.070312 L 220.234375 319.339844 L 179.359375 326.152344 L 158.925781 326.152344 L 126.566406 321.042969 L 101.023438 312.527344 L 75.476562 298.902344 L 66.964844 292.089844 L 12.46875 276.765625 L 12.46875 273.359375 L 56.746094 263.140625 L 65.261719 266.546875 L 80.585938 276.765625 L 106.132812 290.386719 L 133.378906 298.902344 L 153.816406 302.308594 L 177.65625 302.308594 L 203.203125 297.199219 L 216.828125 290.386719 L 199.796875 285.277344 L 198.09375 281.871094 L 210.015625 276.765625 L 220.234375 281.871094 L 245.777344 286.980469 L 247.480469 285.277344 L 230.449219 271.65625 L 210.015625 249.515625 L 196.390625 232.484375 L 194.6875 227.378906 L 179.359375 223.972656 L 143.597656 212.050781 L 150.410156 210.347656 L 184.46875 215.457031 L 211.71875 218.863281 L 249.183594 256.328125 L 273.023438 273.359375 L 303.679688 290.386719 L 324.113281 297.199219 L 325.816406 280.167969 L 334.332031 237.59375 L 342.847656 176.289062 L 346.253906 145.632812 L 351.363281 133.710938 L 371.796875 109.871094 L 424.589844 57.078125 L 438.214844 29.832031 L 453.542969 12.800781 L 470.570312 4.285156 Z M 477.382812 9.394531 L 463.761719 14.503906 L 451.839844 28.128906 L 448.433594 38.34375 L 448.433594 51.96875 L 453.542969 62.1875 L 465.464844 72.40625 L 473.976562 75.8125 L 496.117188 75.8125 L 514.851562 69 L 530.175781 58.78125 L 586.375 58.78125 L 584.671875 51.96875 L 577.859375 43.453125 L 547.207031 33.234375 L 528.472656 26.425781 L 521.660156 19.613281 L 513.148438 14.503906 L 492.710938 9.394531 Z M 448.433594 310.824219 L 436.511719 331.257812 L 436.511719 334.664062 L 460.355469 338.070312 L 458.652344 326.152344 L 453.542969 315.933594 Z M 448.433594 310.824219 " fill-opacity="1" fill-rule="nonzero"/><g clip-path="url(#38a51ea2bd)"><path fill="#fefefe" d="M 419.480469 552.648438 L 441.621094 552.648438 L 441.621094 636.09375 L 419.480469 636.09375 Z M 489.304688 19.613281 L 502.929688 19.613281 L 511.445312 28.128906 L 509.742188 43.453125 L 516.550781 46.859375 L 501.226562 46.859375 L 491.007812 51.96875 L 480.789062 50.265625 L 473.976562 41.75 L 473.976562 40.046875 L 484.195312 40.046875 L 482.492188 31.53125 L 485.898438 23.019531 Z M 516.550781 46.859375 L 525.066406 48.5625 L 550.613281 50.265625 L 550.613281 51.96875 L 523.363281 51.96875 L 516.550781 48.5625 Z M 535.285156 36.640625 L 545.503906 40.046875 L 548.910156 43.453125 L 536.988281 43.453125 L 533.582031 38.34375 Z M 548.910156 43.453125 L 554.019531 45.15625 L 547.207031 46.859375 Z M 538.691406 46.859375 L 545.503906 48.5625 Z M 538.691406 46.859375 " fill-opacity="1" fill-rule="nonzero"/></g></svg>