<svg xmlns="http://www.w3.org/2000/svg" xmlns:xlink="http://www.w3.org/1999/xlink" width="1080" zoomAndPan="magnify" viewBox="0 0 810 809.999993" height="1080" preserveAspectRatio="xMidYMid meet" version="1.0"><path fill="#fefefe" d="M 491.117188 112.472656 L 502.050781 112.472656 L 518.453125 116.574219 L 534.859375 124.777344 L 537.589844 128.875 L 537.589844 131.609375 L 566.296875 139.8125 L 577.234375 143.914062 L 581.332031 146.648438 L 581.332031 149.378906 L 584.066406 149.378906 L 589.535156 161.683594 L 588.167969 164.417969 L 577.234375 165.785156 L 566.296875 167.152344 L 534.859375 168.519531 L 528.023438 180.820312 L 521.1875 209.527344 L 521.1875 213.625 L 528.023438 201.324219 L 532.125 206.792969 L 536.226562 219.09375 L 537.589844 225.929688 L 537.589844 253.269531 L 530.757812 275.140625 L 519.820312 294.277344 L 506.152344 312.046875 L 500.683594 318.882812 L 488.382812 359.890625 L 488.382812 376.292969 L 491.117188 384.496094 L 514.355469 389.960938 L 525.289062 389.960938 L 603.203125 373.558594 L 618.242188 383.128906 L 649.679688 405 L 671.550781 420.035156 L 694.789062 436.4375 L 696.15625 437.804688 L 697.523438 463.777344 L 697.523438 530.757812 L 687.953125 522.554688 L 675.652344 507.519531 L 659.25 489.75 L 646.945312 474.710938 L 630.542969 456.941406 L 618.242188 441.90625 L 607.304688 429.601562 L 607.304688 426.871094 L 601.835938 424.136719 L 596.371094 418.667969 L 503.417969 432.335938 L 489.75 425.503906 L 439.171875 409.097656 L 432.335938 420.035156 L 418.667969 443.273438 L 396.796875 454.207031 L 374.925781 467.878906 L 368.089844 473.34375 L 365.355469 473.34375 L 362.625 455.574219 L 351.6875 426.871094 L 342.121094 407.730469 L 344.851562 400.898438 L 353.054688 385.859375 L 340.753906 381.761719 L 281.972656 366.722656 L 249.167969 372.191406 L 232.765625 372.191406 L 206.792969 368.089844 L 186.289062 361.257812 L 165.785156 350.320312 L 158.949219 344.851562 L 115.207031 332.550781 L 115.207031 329.816406 L 150.746094 321.613281 L 157.582031 324.347656 L 169.886719 332.550781 L 190.390625 343.484375 L 212.261719 350.320312 L 228.664062 353.054688 L 247.800781 353.054688 L 268.304688 348.953125 L 279.238281 343.484375 L 265.570312 339.386719 L 264.203125 336.652344 L 273.773438 332.550781 L 281.972656 336.652344 L 302.476562 340.753906 L 303.84375 339.386719 L 290.175781 328.449219 L 273.773438 310.679688 L 262.835938 297.011719 L 261.46875 292.910156 L 249.167969 290.175781 L 220.460938 280.605469 L 225.929688 279.238281 L 253.269531 283.339844 L 275.140625 286.074219 L 305.210938 316.148438 L 324.347656 329.816406 L 348.953125 343.484375 L 365.355469 348.953125 L 366.722656 335.285156 L 373.558594 301.109375 L 380.394531 251.902344 L 383.128906 227.296875 L 387.226562 217.726562 L 403.632812 198.589844 L 446.007812 156.214844 L 456.941406 134.34375 L 469.246094 120.675781 L 482.914062 113.839844 Z M 488.382812 117.941406 L 477.445312 122.042969 L 467.878906 132.976562 L 465.144531 141.179688 L 465.144531 152.113281 L 469.246094 160.316406 L 478.8125 168.519531 L 485.648438 171.25 L 503.417969 171.25 L 518.453125 165.785156 L 530.757812 157.582031 L 575.867188 157.582031 L 574.5 152.113281 L 569.03125 145.28125 L 544.425781 137.078125 L 529.390625 131.609375 L 523.921875 126.144531 L 517.085938 122.042969 L 500.683594 117.941406 Z M 465.144531 359.890625 L 455.574219 376.292969 L 455.574219 379.027344 L 474.710938 381.761719 L 473.34375 372.191406 L 469.246094 363.992188 Z M 465.144531 359.890625 " fill-opacity="1" fill-rule="nonzero"/><path fill="#fefefe" d="M 273.773438 553.996094 L 297.011719 553.996094 L 310.679688 569.03125 L 322.980469 584.066406 L 336.652344 599.105469 L 338.019531 553.996094 L 357.15625 553.996094 L 357.15625 619.609375 L 355.789062 620.976562 L 333.917969 620.976562 L 322.980469 608.671875 L 310.679688 593.636719 L 298.378906 579.964844 L 292.910156 573.132812 L 291.542969 620.976562 L 273.773438 620.976562 Z M 273.773438 553.996094 " fill-opacity="1" fill-rule="nonzero"/><path fill="#fefefe" d="M 470.613281 553.996094 L 492.484375 553.996094 L 502.050781 563.5625 L 517.085938 582.699219 L 532.125 599.105469 L 533.492188 601.835938 L 534.859375 553.996094 L 552.628906 553.996094 L 552.628906 620.976562 L 529.390625 620.976562 L 512.988281 601.835938 L 495.214844 581.332031 L 488.382812 573.132812 L 487.015625 620.976562 L 470.613281 620.976562 Z M 470.613281 553.996094 " fill-opacity="1" fill-rule="nonzero"/><path fill="#fefefe" d="M 562.195312 553.996094 L 630.542969 553.996094 L 630.542969 566.296875 L 579.964844 566.296875 L 579.964844 581.332031 L 626.441406 581.332031 L 626.441406 592.269531 L 579.964844 592.269531 L 579.964844 608.671875 L 630.542969 608.671875 L 630.542969 620.976562 L 562.195312 620.976562 Z M 198.589844 553.996094 L 266.9375 553.996094 L 265.570312 566.296875 L 216.359375 566.296875 L 216.359375 581.332031 L 262.835938 581.332031 L 262.835938 589.535156 L 261.46875 592.269531 L 216.359375 592.269531 L 216.359375 608.671875 L 266.9375 608.671875 L 266.9375 620.976562 L 198.589844 620.976562 Z M 198.589844 553.996094 " fill-opacity="1" fill-rule="nonzero"/><path fill="#fefefe" d="M 138.445312 552.628906 L 163.050781 552.628906 L 180.820312 558.09375 L 186.289062 563.5625 L 180.820312 573.132812 L 165.785156 566.296875 L 158.949219 564.929688 L 145.28125 564.929688 L 135.710938 569.03125 L 135.710938 577.234375 L 168.519531 581.332031 L 182.1875 585.433594 L 189.023438 590.902344 L 191.757812 597.738281 L 189.023438 610.039062 L 180.820312 616.875 L 165.785156 622.34375 L 142.546875 622.34375 L 127.507812 618.242188 L 123.410156 616.875 L 123.410156 614.140625 L 115.207031 611.40625 L 112.472656 607.304688 L 119.308594 597.738281 L 132.976562 605.9375 L 143.914062 608.671875 L 165.785156 608.671875 L 171.25 605.9375 L 172.617188 597.738281 L 132.976562 590.902344 L 122.042969 586.800781 L 116.574219 581.332031 L 115.207031 571.765625 L 119.308594 562.195312 L 128.875 555.363281 Z M 362.625 553.996094 L 436.4375 553.996094 L 436.4375 567.664062 L 407.730469 567.664062 L 407.730469 620.976562 L 389.960938 620.976562 L 389.960938 567.664062 L 362.625 567.664062 Z M 362.625 553.996094 " fill-opacity="1" fill-rule="nonzero"/><path fill="#fefefe" d="M 638.746094 553.996094 L 656.515625 553.996094 L 656.515625 607.304688 L 697.523438 607.304688 L 697.523438 620.976562 L 638.746094 620.976562 Z M 638.746094 553.996094 " fill-opacity="1" fill-rule="nonzero"/><path fill="#fefefe" d="M 441.90625 553.996094 L 459.675781 553.996094 L 459.675781 620.976562 L 441.90625 620.976562 Z M 497.949219 126.144531 L 508.886719 126.144531 L 515.71875 132.976562 L 514.355469 145.28125 L 519.820312 148.015625 L 507.519531 148.015625 L 499.316406 152.113281 L 491.117188 150.746094 L 485.648438 143.914062 L 485.648438 142.546875 L 493.847656 142.546875 L 492.484375 135.710938 L 495.214844 128.875 Z M 519.820312 148.015625 L 526.65625 149.378906 L 547.160156 150.746094 L 547.160156 152.113281 L 525.289062 152.113281 L 519.820312 149.378906 Z M 534.859375 139.8125 L 543.058594 142.546875 L 545.792969 145.28125 L 536.226562 145.28125 L 533.492188 141.179688 Z M 545.792969 145.28125 L 549.894531 146.648438 L 544.425781 148.015625 Z M 537.589844 148.015625 L 543.058594 149.378906 Z M 537.589844 148.015625 " fill-opacity="1" fill-rule="nonzero"/></svg>